<svg width="112" height="112" viewBox="0 0 112 112" fill="none" xmlns="http://www.w3.org/2000/svg">
<circle cx="56" cy="56" r="56" fill="white"/>
<path d="M45.166 79.6641C42.0228 79.6419 39.2337 78.8783 36.7988 77.373C34.3861 75.8457 32.582 73.765 31.3867 71.1309C30.1914 68.4746 29.7266 65.5527 29.9922 62.3652L30.0918 61.0371C30.4238 57.5397 31.4421 54.3301 33.1465 51.4082C34.8509 48.4863 37.0423 46.2396 39.7207 44.668C42.3991 43.0742 45.3652 42.3216 48.6191 42.4102C53.2454 42.4987 56.7428 44.2031 59.1113 47.5234C61.502 50.8216 62.4095 55.0052 61.834 60.0742L61.3027 64.1582H39.2891C39.2005 66.4824 39.765 68.3418 40.9824 69.7363C42.1999 71.1309 43.86 71.8503 45.9629 71.8945C49.3717 71.9831 52.36 70.666 54.9277 67.9434L59.2109 73.2559C57.8607 75.2923 55.9128 76.8861 53.3672 78.0371C50.8216 79.166 48.0879 79.7083 45.166 79.6641ZM48.1543 50.1465C46.4277 50.1022 44.8893 50.6445 43.5391 51.7734C42.2109 52.9023 41.0156 54.8613 39.9531 57.6504H52.8359L53.0352 56.7871C53.168 55.9017 53.179 55.0605 53.0684 54.2637C52.847 52.9798 52.3047 51.9837 51.4414 51.2754C50.5781 50.5449 49.4824 50.1686 48.1543 50.1465ZM76.2441 64.1582H68.4414L73.1562 30.6562H83.1504L76.2441 64.1582ZM65.3535 74.6504C65.3092 73.1895 65.7741 71.9609 66.748 70.9648C67.722 69.9466 68.9616 69.4154 70.4668 69.3711C71.8835 69.3268 73.112 69.7695 74.1523 70.6992C75.1927 71.6068 75.735 72.8021 75.7793 74.2852C75.8236 75.7461 75.3587 76.9857 74.3848 78.0039C73.4108 79.0221 72.1602 79.5534 70.6328 79.5977C69.0833 79.5977 67.8105 79.1107 66.8145 78.1367C65.8405 77.1628 65.3535 76.0007 65.3535 74.6504Z" fill="#CE0505"/>
</svg>
